 <svg  version="1.0" xmlns="http://www.w3.org/2000/svg"  width="229.000000pt" height="229.000000pt" viewBox="0 0 229.000000 229.000000"  preserveAspectRatio="xMidYMid meet">  <g transform="translate(0.000000,229.000000) scale(0.100000,-0.100000)" fill="#80ff80" stroke="none"> <path d="M51 1934 c-26 -33 -26 -45 0 -77 l20 -27 191 -2 191 -3 62 -250 c204 -824 195 -782 195 -893 0 -83 4 -111 21 -147 25 -52 69 -94 110 -102 32 -6 36 -18 14 -47 -8 -11 -15 -37 -15 -59 0 -86 59 -147 141 -147 109 0 179 109 131 203 l-20 37 264 0 c145 0 264 -4 264 -9 0 -5 -7 -14 -15 -21 -22 -19 -20 -107 5 -147 51 -84 182 -85 240 -2 28 39 31 113 6 151 l-18 28 39 0 c69 0 102 45 73 101 -10 18 -27 19 -523 19 -467 0 -515 2 -547 18 -32 15 -35 21 -38 65 l-3 47 560 0 c395 0 567 3 585 11 26 12 37 35 55 114 6 28 26 118 46 200 51 219 94 403 107 460 6 28 19 82 29 120 10 39 21 93 24 121 6 45 5 54 -16 73 l-23 21 -800 0 -801 0 -13 42 c-36 115 -70 128 -326 128 l-195 0 -20 -26z m296 -15 c115 -1 134 -3 149 -20 9 -10 20 -16 24 -14 5 3 16 -15 26 -40 17 -46 48 -89 65 -91 5 -1 12 -2 17 -3 4 -1 357 -1 784 -1 881 0 803 9 787 -85 -11 -71 -38 -195 -44 -204 -5 -8 -17 -68 -18 -88 0 -7 -4 -13 -8 -13 -4 0 -6 -6 -6 -12 1 -17 -11 -76 -33 -163 -21 -78 -31 -124 -32 -142 -1 -7 -4 -13 -7 -13 -4 0 -6 -12 -5 -27 1 -16 -2 -32 -6 -38 -4 -5 -15 -48 -24 -94 -9 -46 -20 -89 -23 -95 -4 -6 -8 -17 -10 -25 -5 -37 -25 -40 -241 -45 -160 -4 -212 -2 -212 7 0 8 -3 8 -9 -2 -5 -8 -11 -9 -14 -3 -9 13 55 69 79 69 54 -1 85 4 79 13 -3 5 5 12 19 16 30 7 111 132 139 212 31 92 31 136 3 197 -15 30 -30 56 -36 60 -5 3 -6 13 -3 22 4 11 3 14 -5 9 -7 -4 -12 -3 -12 3 0 5 -11 22 -25 37 -21 23 -30 26 -65 21 l-40 -5 21 29 c11 16 17 29 12 29 -4 0 -3 4 2 8 6 4 16 25 23 47 11 37 11 41 -12 61 -14 12 -23 24 -21 26 3 2 -9 3 -25 2 -20 -1 -30 3 -30 12 0 25 -61 83 -98 94 -66 18 -235 13 -292 -10 -27 -11 -50 -17 -50 -14 0 3 -6 2 -12 -3 -7 -4 -19 -8 -26 -9 -8 -2 -17 -6 -20 -10 -4 -4 2 -4 13 -1 16 6 14 2 -7 -16 -25 -21 -76 -105 -97 -160 -8 -20 -6 -30 10 -48 32 -38 25 -44 -48 -41 -65 3 -69 2 -97 -27 -17 -17 -24 -31 -18 -31 7 0 11 -3 10 -7 -1 -5 3 -18 11 -31 11 -20 9 -29 -12 -65 -13 -23 -23 -50 -22 -59 2 -10 -1 -18 -5 -18 -10 0 20 -82 35 -92 5 -4 7 -8 3 -8 -10 0 46 -94 84 -142 16 -20 45 -47 66 -59 20 -13 39 -26 42 -30 4 -6 146 -13 203 -10 11 1 32 15 48 32 33 35 42 32 69 -21 11 -22 30 -48 42 -60 27 -24 58 -22 -299 -24 l-292 -2 -25 -23 c-46 -43 -30 -118 34 -155 33 -20 51 -20 531 -21 394 -1 500 -4 513 -14 16 -13 12 -36 -4 -26 -5 3 -11 1 -15 -5 -3 -5 -17 -10 -31 -10 -14 0 -22 -4 -19 -10 3 -5 -1 -10 -9 -10 -9 0 -16 -5 -16 -11 0 -5 3 -8 8 -6 7 5 10 -18 13 -97 1 -33 -4 -45 -31 -69 -29 -26 -39 -29 -78 -24 -31 3 -52 13 -69 31 -13 14 -21 26 -17 26 3 0 1 6 -5 14 -8 10 -9 21 -1 42 6 15 9 33 6 40 -3 8 -1 16 3 19 16 9 -1 46 -25 55 -12 5 -128 9 -256 8 -269 -1 -295 -6 -284 -61 4 -18 7 -38 8 -44 1 -7 5 -13 9 -13 4 0 1 -20 -7 -44 -27 -77 -115 -101 -172 -45 -29 28 -31 34 -27 86 2 30 8 60 13 66 11 14 1 48 -13 49 -6 1 -29 13 -53 27 -61 38 -75 73 -84 226 -4 72 -12 146 -17 165 -5 19 -19 69 -31 110 -12 41 -21 85 -21 98 0 12 -3 22 -7 22 -4 0 -8 8 -9 18 -1 20 -3 26 -43 187 -16 66 -31 132 -32 148 -1 15 -5 27 -8 27 -3 0 -6 8 -6 18 -1 16 -46 197 -63 254 -6 17 -5 30 3 38 8 8 7 9 -7 4 -12 -4 -16 -2 -12 8 3 8 -6 25 -19 37 -14 13 -23 28 -19 34 3 6 1 7 -6 3 -10 -7 -312 -9 -345 -3 -6 1 -14 6 -18 11 -8 12 2 37 13 30 5 -3 9 -1 9 4 0 6 23 8 52 6 29 -2 112 -4 185 -5z m1193 -309 c15 -16 35 -45 44 -65 19 -39 19 -39 47 -24 12 6 27 8 34 5 22 -8 -67 -184 -97 -191 -13 -3 -63 -5 -112 -3 -98 3 -118 16 -66 43 l31 16 -24 42 c-14 23 -34 59 -46 80 -41 74 -55 90 -95 108 l-41 18 148 0 149 1 28 -30z m-252 -46 c51 -59 51 -73 -5 -160 -26 -42 -53 -79 -60 -81 -7 -3 -31 8 -55 24 -24 16 -60 37 -80 48 -21 11 -38 22 -38 26 0 11 80 153 98 172 13 15 26 18 62 14 36 -4 51 -12 78 -43z m72 -154 c0 -6 -7 -22 -16 -35 -14 -21 -14 -28 -3 -43 24 -30 41 -35 113 -37 78 -1 91 -12 50 -44 -15 -12 -21 -21 -14 -21 7 0 11 -3 7 -6 -3 -4 9 -34 27 -69 37 -67 35 -106 -2 -56 -12 16 -27 28 -34 27 -21 -3 -78 -46 -78 -59 0 -7 -11 -25 -24 -41 l-23 -30 -27 29 c-25 26 -35 30 -99 33 -40 2 -78 5 -84 7 -16 5 -7 32 13 39 9 4 12 2 8 -5 -3 -6 5 -3 20 6 14 10 26 22 26 27 0 5 4 7 9 4 17 -11 -13 101 -31 120 -12 11 4 34 23 34 10 0 33 16 52 35 19 19 40 35 48 35 11 0 11 2 -1 10 -13 8 -13 10 2 10 9 0 20 4 23 10 4 6 -1 7 -12 3 -16 -6 -16 -5 -4 10 15 19 31 22 31 7z m358 -82 c5 -7 19 -30 31 -50 12 -21 30 -54 41 -73 20 -36 25 -79 14 -110 -10 -26 -59 -45 -117 -45 -61 0 -65 3 -109 83 -55 100 -55 99 -34 111 10 6 48 30 85 53 74 48 75 48 89 31z m-552 -97 c24 -46 41 -88 39 -92 -3 -4 -20 -3 -38 2 -17 5 -33 9 -34 9 0 0 -12 -21 -25 -47 -14 -27 -39 -74 -57 -106 -20 -35 -31 -69 -30 -85 6 -50 -12 -34 -68 60 -72 120 -77 159 -34 226 38 59 38 70 6 82 -14 5 -25 17 -25 25 0 13 16 15 111 13 l111 -3 44 -84z m332 -169 l3 -32 120 0 c90 0 128 4 150 16 29 14 55 11 34 -4 -11 -7 -19 -22 -71 -117 -18 -33 -42 -70 -54 -82 -24 -25 -92 -39 -138 -28 -28 6 -30 4 -39 -31 -4 -21 -13 -39 -19 -41 -9 -3 -114 163 -114 180 0 17 105 177 114 174 6 -2 12 -18 14 -35z m-189 -48 c8 -7 -1 -189 -10 -194 -5 -4 -51 -6 -103 -5 -109 1 -141 15 -151 69 -5 24 -1 45 15 77 36 71 31 69 143 62 56 -3 104 -7 106 -9z"/> </g> </svg> 